<svg aria-hidden="true" style="position: absolute; width: 0; height: 0; overflow: hidden;" version="1.1" xmlns="http://www.w3.org/2000/svg" xmlns:xlink="http://www.w3.org/1999/xlink">
    <defs>
        <symbol id="about" viewBox="0 0 20 28">
            <path d="M20 21.859c0 2.281-1.5 4.141-3.328 4.141h-13.344c-1.828 0-3.328-1.859-3.328-4.141 0-4.109 1.016-8.859 5.109-8.859 1.266 1.234 2.984 2 4.891 2s3.625-0.766 4.891-2c4.094 0 5.109 4.75 5.109 8.859zM16 8c0 3.313-2.688 6-6 6s-6-2.688-6-6 2.688-6 6-6 6 2.688 6 6z"></path>
        </symbol>
        <symbol viewBox="0 0 24 28" id="phone">
            <path d="M20 18.641c0-0.078 0-0.172-0.031-0.25-0.094-0.281-2.375-1.437-2.812-1.687-0.297-0.172-0.656-0.516-1.016-0.516-0.688 0-1.703 2.047-2.312 2.047-0.313 0-0.703-0.281-0.984-0.438-2.063-1.156-3.484-2.578-4.641-4.641-0.156-0.281-0.438-0.672-0.438-0.984 0-0.609 2.047-1.625 2.047-2.312 0-0.359-0.344-0.719-0.516-1.016-0.25-0.438-1.406-2.719-1.687-2.812-0.078-0.031-0.172-0.031-0.25-0.031-0.406 0-1.203 0.187-1.578 0.344-1.031 0.469-1.781 2.438-1.781 3.516 0 1.047 0.422 2 0.781 2.969 1.25 3.422 4.969 7.141 8.391 8.391 0.969 0.359 1.922 0.781 2.969 0.781 1.078 0 3.047-0.75 3.516-1.781 0.156-0.375 0.344-1.172 0.344-1.578zM24 6.5v15c0 2.484-2.016 4.5-4.5 4.5h-15c-2.484 0-4.5-2.016-4.5-4.5v-15c0-2.484 2.016-4.5 4.5-4.5h15c2.484 0 4.5 2.016 4.5 4.5z"></path>
        </symbol>
        <symbol id="projects" viewBox="0 0 26 28">
            <path d="M12 16v6c0 1.094-0.906 2-2 2h-8c-1.094 0-2-0.906-2-2v-6c0-1.094 0.906-2 2-2h8c1.094 0 2 0.906 2 2zM12 4v6c0 1.094-0.906 2-2 2h-8c-1.094 0-2-0.906-2-2v-6c0-1.094 0.906-2 2-2h8c1.094 0 2 0.906 2 2zM26 16v6c0 1.094-0.906 2-2 2h-8c-1.094 0-2-0.906-2-2v-6c0-1.094 0.906-2 2-2h8c1.094 0 2 0.906 2 2zM26 4v6c0 1.094-0.906 2-2 2h-8c-1.094 0-2-0.906-2-2v-6c0-1.094 0.906-2 2-2h8c1.094 0 2 0.906 2 2z"></path>
        </symbol>
        <symbol id="skills" viewBox="0 0 28 28">
            <path d="M16 22h10v-2h-10v2zM10 14h16v-2h-16v2zM20 6h6v-2h-6v2zM28 19v4c0 0.547-0.453 1-1 1h-26c-0.547 0-1-0.453-1-1v-4c0-0.547 0.453-1 1-1h26c0.547 0 1 0.453 1 1zM28 11v4c0 0.547-0.453 1-1 1h-26c-0.547 0-1-0.453-1-1v-4c0-0.547 0.453-1 1-1h26c0.547 0 1 0.453 1 1zM28 3v4c0 0.547-0.453 1-1 1h-26c-0.547 0-1-0.453-1-1v-4c0-0.547 0.453-1 1-1h26c0.547 0 1 0.453 1 1z"></path>
        </symbol>
        <symbol id="icon-jest" viewBox="0 0 32 32">
            <path fill="#c21325" style="fill: var(--color1, #c21325)" d="M29.668 15.76c-0.003-1.918-1.306-3.531-3.075-4.007l-0.029-0.007 3.984-11.747h-19.743l3.995 11.784c-1.742 0.519-2.99 2.106-2.992 3.984v0c0 1.391 0.693 2.623 1.751 3.381-0.442 0.619-0.917 1.161-1.44 1.653l-0.006 0.005c-0.956 0.912-2.083 1.653-3.328 2.17l-0.072 0.026c-1.112-0.751-1.593-2.075-1.159-3.261 1.704-0.541 2.917-2.109 2.917-3.96 0-2.284-1.847-4.137-4.129-4.147h-0.001c-2.291 0.003-4.148 1.86-4.151 4.15v0c0 1.131 0.463 2.168 1.204 2.909-0.064 0.129-0.129 0.26-0.195 0.399-0.62 1.279-1.324 2.724-1.593 4.345-0.537 3.243 0.343 5.845 2.465 7.319 1.089 0.776 2.447 1.241 3.914 1.241 0.005 0 0.009 0 0.014 0h-0.001c2.436 0 4.909-1.223 7.3-2.409 1.705-0.843 3.465-1.723 5.197-2.149 0.64-0.157 1.307-0.249 2.011-0.352 1.427-0.204 2.9-0.416 4.224-1.187 1.505-0.874 2.58-2.347 2.904-4.084l0.006-0.037c0.232-1.325 0-2.659-0.592-3.827 0.397-0.64 0.62-1.389 0.62-2.195zM27.861 15.76c0 1.287-1.047 2.333-2.333 2.333-1.288-0.004-2.331-1.049-2.331-2.337 0-0.739 0.343-1.399 0.879-1.827l0.005-0.004 0.009-0.009c0.075-0.056 0.157-0.112 0.24-0.167 0 0 0.011 0 0.011-0.009 0.037-0.019 0.073-0.047 0.111-0.067 0.009 0 0.019-0.008 0.028-0.008 0.037-0.019 0.084-0.037 0.129-0.056 0.047-0.019 0.093-0.036 0.131-0.055 0.009 0 0.017-0.009 0.027-0.009 0.037-0.009 0.075-0.028 0.112-0.037 0.009 0 0.027-0.009 0.037-0.009 0.045-0.009 0.083-0.019 0.129-0.027h0.009l0.139-0.029c0.009 0 0.027 0 0.037-0.009 0.037 0 0.073-0.009 0.111-0.009h0.047c0.047 0 0.093-0.009 0.148-0.009h0.12c0.037 0 0.067 0 0.103 0.009h0.019c0.073 0.009 0.148 0.019 0.223 0.037 1.070 0.235 1.86 1.175 1.861 2.298v0zM13.391 1.853h14.573l-3.345 9.867c-0.139 0.027-0.277 0.073-0.416 0.12l-3.52-7.18-3.531 7.133c-0.139-0.045-0.288-0.073-0.436-0.101zM20.015 14.953c-0.181-0.887-0.626-1.649-1.248-2.221l-0.003-0.003 1.917-3.872 1.936 3.956c-0.573 0.573-0.991 1.307-1.157 2.14zM15.373 13.489c0.045-0.009 0.083-0.019 0.129-0.027h0.027c0.039-0.011 0.075-0.011 0.112-0.020h0.037c0.037 0 0.065-0.009 0.101-0.009h0.361c0.037 0 0.065 0.009 0.093 0.009 0.019 0 0.027 0 0.047 0.009 0.036 0.009 0.064 0.009 0.101 0.019 0.009 0 0.019 0 0.037 0.009l0.129 0.027h0.009c0.037 0.011 0.075 0.020 0.111 0.039 0.009 0 0.019 0.009 0.037 0.009 0.028 0.009 0.065 0.019 0.093 0.036 0.009 0 0.019 0.009 0.027 0.009 0.037 0.019 0.075 0.028 0.112 0.047h0.009c0.046 0.018 0.085 0.040 0.121 0.066l-0.001-0.001h0.009c0.037 0.019 0.075 0.045 0.112 0.064 0.009 0 0.009 0.009 0.017 0.009 0.037 0.019 0.067 0.047 0.103 0.065l0.009 0.009c0.111 0.083 0.213 0.176 0.315 0.268l0.009 0.009c0.396 0.417 0.64 0.982 0.64 1.604 0 0.003 0 0.006-0 0.009v-0c-0.044 1.256-1.072 2.257-2.335 2.257s-2.291-1.001-2.335-2.253l-0-0.004c0-0.002 0-0.004 0-0.007 0-1.083 0.741-1.993 1.744-2.25l0.016-0.004zM6.256 13.424c1.288 0 2.335 1.048 2.335 2.335s-1.047 2.335-2.333 2.335-2.336-1.047-2.336-2.333 1.048-2.336 2.335-2.336zM27.807 21.457c-0.224 1.227-0.968 2.245-1.991 2.833l-0.020 0.011c-1.011 0.584-2.252 0.769-3.559 0.955-0.871 0.112-1.613 0.248-2.343 0.419l0.156-0.031c-1.927 0.473-3.779 1.4-5.576 2.289-2.299 1.139-4.467 2.213-6.476 2.213-0.009 0-0.020 0-0.030 0-1.067 0-2.054-0.344-2.856-0.927l0.014 0.010c-2.039-1.408-1.937-4.048-1.696-5.493 0.223-1.353 0.843-2.621 1.436-3.836 0.037-0.073 0.065-0.139 0.103-0.213 0.203 0.075 0.416 0.131 0.639 0.168-0.352 1.964 0.648 3.992 2.595 4.993l0.352 0.185 0.379-0.139c1.621-0.575 3.123-1.511 4.448-2.761 0.721-0.674 1.357-1.424 1.898-2.242l0.029-0.046c0.213 0.036 0.427 0.045 0.64 0.045 1.917-0.005 3.529-1.306 4.004-3.074l0.007-0.029h1.556c0.479 1.799 2.093 3.103 4.012 3.103 0 0 0.001 0 0.001 0h-0c0.768 0 1.48-0.213 2.093-0.573 0.24 0.693 0.315 1.417 0.185 2.14z"></path>
        </symbol>
        <symbol id="icon-wordpress" viewBox="0 0 32 32">
            <path fill="#21759b" style="fill: var(--color1, #21759b)" d="M28.625 9.1c1.12 2.049 1.757 4.4 1.757 6.9 0 5.305-2.875 9.941-7.151 12.433l4.393-12.703c0.82-2.053 1.093-3.695 1.093-5.152 0-0.54-0.035-1.040-0.093-1.48zM17.984 9.239c0.863-0.040 1.643-0.14 1.643-0.14 0.776-0.1 0.685-1.24-0.089-1.199 0 0-2.34 0.18-3.84 0.18-1.419 0-3.8-0.2-3.8-0.2-0.78-0.040-0.881 1.14-0.1 1.18 0 0 0.72 0.081 1.5 0.12l2.24 6.14-3.16 9.44-5.239-15.56c0.865-0.040 1.645-0.133 1.645-0.133 0.78-0.1 0.688-1.24-0.087-1.195 0 0-2.328 0.184-3.832 0.184-0.267 0-0.584-0.011-0.92-0.020 2.603-3.836 7.035-6.416 12.055-6.416 3.745 0 7.153 1.429 9.715 3.777-0.061-0.004-0.121-0.012-0.188-0.012-1.413 0-2.416 1.231-2.416 2.552 0 1.187 0.684 2.191 1.413 3.375 0.548 0.96 1.187 2.191 1.187 3.969 0 1.22-0.472 2.659-1.095 4.639l-1.433 4.78-5.2-15.48zM16 30.379c-1.412 0-2.775-0.204-4.064-0.583l4.316-12.541 4.42 12.116c0.032 0.071 0.067 0.135 0.104 0.199-1.493 0.524-3.1 0.812-4.776 0.812zM1.615 16c0-2.085 0.448-4.067 1.247-5.853l6.859 18.799c-4.795-2.332-8.104-7.251-8.105-12.945zM16 0c-8.82 0-16 7.18-16 16s7.18 16 16 16 16-7.18 16-16-7.18-16-16-16z"></path>
        </symbol>
        <symbol id="icon-webpack" viewBox="0 0 32 32">
            <path fill="#8dd6f9" style="fill: var(--color2, #8dd6f9)" d="M28.021 24.16l-11.553 6.506v-5.068l7.198-3.942zM28.811 23.448v-13.607l-4.228 2.429v8.746zM3.901 24.16l11.553 6.506v-5.068l-7.198-3.942zM3.111 23.448v-13.607l4.228 2.429v8.746zM3.605 8.96l11.849-6.674v4.9l-7.649 4.19zM28.317 8.96l-11.849-6.674v4.9l7.649 4.19zM15.454 24.446l-7.102-3.887v-7.703l7.101 4.083zM16.468 24.446l7.101-3.887v-7.703l-7.101 4.083zM8.833 11.965l7.129-3.904 7.129 3.904-7.129 4.099z"></path>
        </symbol>
        <symbol id="icon-sass" viewBox="0 0 32 32">
            <path fill="#c69" style="fill: var(--color3, #c69)" d="M16 0c8.836 0 16 7.164 16 16s-7.164 16-16 16-16-7.164-16-16 7.164-16 16-16zM12.82 21.331c0.233 0.86 0.208 1.664-0.032 2.389l-0.087 0.24c-0.032 0.081-0.069 0.16-0.104 0.235-0.187 0.387-0.435 0.747-0.74 1.080-0.931 1.012-2.229 1.396-2.787 1.073-0.6-0.349-0.301-1.78 0.779-2.92 1.161-1.224 2.827-2.012 2.827-2.012v-0.004zM26.035 6.849c-0.723-2.844-5.436-3.779-9.896-2.193-2.652 0.943-5.525 2.424-7.591 4.356-2.457 2.295-2.848 4.295-2.687 5.131 0.569 2.948 4.609 4.876 6.271 6.307v0.008c-0.489 0.24-4.075 2.039-4.915 3.9-0.9 1.96 0.14 3.361 0.82 3.54 2.1 0.581 4.26-0.48 5.42-2.199 1.12-1.681 1.021-3.841 0.539-4.901 0.661-0.18 1.44-0.26 2.44-0.139 2.801 0.32 3.361 2.080 3.24 2.8-0.12 0.719-0.697 1.139-0.899 1.259-0.2 0.121-0.26 0.16-0.241 0.241 0.020 0.12 0.121 0.12 0.28 0.1 0.22-0.040 1.461-0.6 1.521-1.961 0.060-1.72-1.581-3.639-4.5-3.6-1.2 0.021-1.961 0.121-2.5 0.341-0.040-0.060-0.081-0.1-0.14-0.14-1.8-1.94-5.14-3.3-5-5.88 0.040-0.94 0.38-3.419 6.4-6.419 4.94-2.461 8.881-1.78 9.561-0.28 0.977 2.139-2.101 6.12-7.241 6.699-1.96 0.22-2.98-0.539-3.241-0.82-0.279-0.3-0.319-0.32-0.419-0.259-0.16 0.080-0.060 0.34 0 0.5 0.16 0.4 0.78 1.1 1.861 1.46 0.939 0.3 3.24 0.479 6-0.6 3.099-1.199 5.519-4.54 4.819-7.34z"></path>
        </symbol>
        <symbol id="icon-react" viewBox="0 0 32 32">
            <path fill="#61dafb" style="fill: var(--color4, #61dafb)" d="M16 13.148c-1.575 0-2.852 1.277-2.852 2.852s1.277 2.852 2.852 2.852v0c1.575 0 2.852-1.277 2.852-2.852s-1.277-2.852-2.852-2.852v0zM8.011 21.673l-0.629-0.16c-4.691-1.185-7.381-3.197-7.381-5.519s2.691-4.333 7.381-5.519l0.629-0.159 0.177 0.624c0.545 1.86 1.163 3.443 1.899 4.957l-0.082-0.186 0.135 0.284-0.135 0.284c-0.656 1.329-1.275 2.912-1.761 4.551l-0.056 0.22zM7.089 11.933c-3.565 1.001-5.753 2.533-5.753 4.061 0 1.527 2.188 3.059 5.753 4.061 0.512-1.62 1.046-2.965 1.662-4.263l-0.086 0.202c-0.531-1.098-1.066-2.443-1.511-3.828l-0.065-0.234zM23.989 21.673l-0.177-0.625c-0.544-1.859-1.162-3.441-1.9-4.954l0.081 0.184-0.135-0.284 0.135-0.284c0.656-1.329 1.275-2.911 1.762-4.55l0.056-0.221 0.177-0.624 0.631 0.159c4.689 1.185 7.38 3.197 7.38 5.52s-2.691 4.333-7.38 5.519zM23.335 15.995c0.64 1.385 1.169 2.747 1.576 4.061 3.567-1.003 5.753-2.535 5.753-4.061 0-1.528-2.188-3.059-5.753-4.061-0.511 1.619-1.045 2.963-1.662 4.262l0.086-0.2zM7.080 11.927l-0.177-0.623c-1.319-4.648-0.919-7.979 1.097-9.141 1.977-1.141 5.152 0.207 8.479 3.621l0.453 0.465-0.453 0.465c-1.146 1.19-2.207 2.482-3.162 3.853l-0.068 0.103-0.18 0.257-0.313 0.027c-1.875 0.151-3.596 0.439-5.264 0.86l0.218-0.047zM9.608 3.087c-0.357 0-0.673 0.077-0.94 0.231-1.325 0.764-1.56 3.42-0.647 7.004 1.21-0.285 2.681-0.521 4.18-0.658l0.131-0.010c0.894-1.264 1.792-2.37 2.756-3.414l-0.020 0.022c-2.080-2.025-4.049-3.175-5.46-3.175zM22.393 30.236c-0.001 0-0.001 0 0 0-1.9 0-4.34-1.431-6.872-4.031l-0.453-0.465 0.453-0.465c1.146-1.19 2.206-2.482 3.16-3.854l0.068-0.103 0.18-0.257 0.312-0.027c1.875-0.15 3.597-0.438 5.267-0.858l-0.218 0.046 0.629-0.159 0.179 0.624c1.316 4.645 0.917 7.977-1.099 9.139-0.449 0.259-0.988 0.411-1.562 0.411-0.016 0-0.031-0-0.047-0l0.002 0zM16.932 25.728c2.080 2.025 4.049 3.175 5.46 3.175h0.001c0.356 0 0.673-0.077 0.939-0.231 1.325-0.764 1.561-3.421 0.647-7.005-1.212 0.286-2.682 0.522-4.182 0.658l-0.13 0.010c-0.893 1.265-1.791 2.371-2.755 3.416l0.020-0.022zM24.92 11.927l-0.629-0.159c-1.453-0.376-3.175-0.664-4.939-0.806l-0.111-0.007-0.312-0.027-0.18-0.257c-1.021-1.474-2.082-2.766-3.237-3.966l0.009 0.010-0.453-0.465 0.453-0.465c3.325-3.413 6.499-4.761 8.479-3.621 2.016 1.163 2.416 4.493 1.099 9.14zM19.667 9.653c1.523 0.139 2.969 0.364 4.312 0.668 0.915-3.584 0.679-6.24-0.647-7.004-1.317-0.761-3.793 0.405-6.4 2.944 0.943 1.022 1.841 2.128 2.666 3.289l0.069 0.103zM9.608 30.236c-0.014 0-0.030 0-0.046 0-0.574 0-1.113-0.152-1.577-0.419l0.015 0.008c-2.016-1.161-2.416-4.492-1.097-9.139l0.176-0.624 0.629 0.159c1.54 0.388 3.239 0.661 5.047 0.812l0.313 0.027 0.179 0.257c1.022 1.475 2.083 2.767 3.239 3.967l-0.010-0.010 0.453 0.465-0.453 0.465c-2.531 2.6-4.971 4.031-6.868 4.031zM8.021 21.667c-0.915 3.584-0.679 6.241 0.647 7.005 1.316 0.751 3.791-0.407 6.4-2.944-0.943-1.022-1.841-2.129-2.667-3.29l-0.069-0.103c-1.629-0.146-3.099-0.382-4.534-0.711l0.224 0.043zM16 22.504c-1.097 0-2.225-0.048-3.355-0.141l-0.313-0.027-0.18-0.257c-0.544-0.768-1.139-1.691-1.697-2.639l-0.103-0.19c-0.452-0.758-0.971-1.732-1.45-2.728l-0.105-0.243-0.133-0.284 0.133-0.284c0.584-1.239 1.102-2.212 1.658-3.161l-0.103 0.191c0.552-0.955 1.159-1.907 1.8-2.829l0.18-0.257 0.313-0.027c1.005-0.090 2.174-0.142 3.355-0.142s2.35 0.052 3.505 0.153l-0.15-0.011 0.312 0.027 0.179 0.257c1.177 1.666 2.294 3.567 3.252 5.56l0.104 0.24 0.135 0.284-0.135 0.284c-1.058 2.232-2.176 4.133-3.439 5.925l0.083-0.125-0.179 0.257-0.312 0.027c-1.129 0.093-2.259 0.141-3.356 0.141zM13.071 21.059c1.973 0.148 3.885 0.148 5.86 0 1.004-1.445 1.978-3.104 2.827-4.836l0.101-0.228c-0.947-1.958-1.922-3.617-3.012-5.19l0.083 0.126c-0.877-0.071-1.898-0.111-2.929-0.111s-2.052 0.040-3.063 0.119l0.134-0.008c-1.008 1.447-1.983 3.106-2.83 4.84l-0.099 0.224c0.951 1.96 1.926 3.619 3.014 5.193l-0.085-0.13z"></path>
        </symbol>
        <symbol id="icon-npm" viewBox="0 0 32 32">
            <path fill="#cb3837" style="fill: var(--color5, #cb3837)" d="M0 9.779v10.667h8.888v1.776h7.112v-1.776h16v-10.667zM8.888 18.664h-1.776v-5.333h-1.78v5.333h-3.552v-7.108h7.108zM14.221 18.664v1.781h-3.553v-8.889h7.112v7.109h-3.559zM30.223 18.664h-1.773v-5.333h-1.781v5.333h-1.78v-5.333h-1.773v5.333h-3.561v-7.108h10.669zM14.22 13.333h1.78v3.556h-1.78z"></path>
        </symbol>
        <symbol id="icon-javascript" viewBox="0 0 32 32">
            <path fill="#f7df1e" style="fill: var(--color6, #f7df1e)" d="M0 0h32v32h-32zM29.379 24.368c-0.233-1.46-1.184-2.687-4.004-3.831-0.981-0.46-2.072-0.78-2.396-1.52-0.121-0.44-0.14-0.68-0.061-0.94 0.2-0.861 1.22-1.12 2.020-0.88 0.52 0.16 1 0.56 1.301 1.2 1.379-0.901 1.379-0.901 2.34-1.5-0.36-0.56-0.539-0.801-0.781-1.040-0.84-0.94-1.959-1.42-3.779-1.379l-0.94 0.119c-0.901 0.22-1.76 0.7-2.28 1.34-1.52 1.721-1.081 4.721 0.759 5.961 1.82 1.36 4.481 1.659 4.821 2.94 0.32 1.56-1.16 2.060-2.621 1.88-1.081-0.24-1.68-0.781-2.34-1.781l-2.44 1.401c0.28 0.64 0.6 0.919 1.080 1.479 2.32 2.341 8.12 2.221 9.161-1.339 0.039-0.12 0.32-0.94 0.099-2.2zM17.401 14.708h-2.997c0 2.584-0.012 5.152-0.012 7.74 0 1.643 0.084 3.151-0.184 3.615-0.44 0.919-1.573 0.801-2.088 0.64-0.528-0.261-0.796-0.621-1.107-1.14-0.084-0.14-0.147-0.261-0.169-0.261l-2.433 1.5c0.407 0.84 1 1.563 1.765 2.023 1.14 0.68 2.672 0.9 4.276 0.54 1.044-0.301 1.944-0.921 2.415-1.881 0.68-1.24 0.536-2.76 0.529-4.461 0.016-2.739 0-5.479 0-8.239z"></path>
        </symbol>
        <symbol id="icon-html5" viewBox="0 0 32 32">
            <path fill="#e34f26" style="fill: var(--color7, #e34f26)" d="M2 0h28l-2.547 28.751-11.484 3.249-11.419-3.251zM11.375 13l-0.309-3.624 13.412 0.004 0.307-3.496-17.568-0.004 0.931 10.68h12.168l-0.435 4.568-3.88 1.072-3.94-1.080-0.251-2.813h-3.479l0.44 5.561 7.229 1.933 7.172-1.924 0.992-10.876z"></path>
        </symbol>
        <symbol id="icon-css3" viewBox="0 0 32 32">
            <path fill="#1572b6" style="fill: var(--color8, #1572b6)" d="M2 0h28l-2.547 28.751-11.484 3.249-11.42-3.251zM24.787 5.884l-17.573-0.004 0.284 3.496 13.5 0.003-0.34 3.621h-8.853l0.32 3.431h8.243l-0.488 4.697-3.88 1.072-3.941-1.080-0.251-2.813h-3.48l0.387 5.14 7.287 2.271 7.164-2.040z"></path>
        </symbol>
        <symbol id="icon-bootstrap" viewBox="0 0 32 32">
            <path fill="#563d7c" style="fill: var(--color9, #563d7c)" d="M26.667 0h-21.333c-2.943 0.008-5.325 2.391-5.333 5.333v21.333c0 2.933 2.4 5.333 5.333 5.333h21.333c2.933 0 5.333-2.4 5.333-5.333v-21.333c0-2.933-2.4-5.333-5.333-5.333zM23.751 22.473c-0.267 0.643-0.689 1.209-1.231 1.645-0.56 0.453-1.269 0.827-2.143 1.093-0.872 0.271-1.909 0.407-3.111 0.407h-8.576v-18.667h9.069c1.677 0 3.021 0.377 4.027 1.147 1.013 0.773 1.517 1.925 1.517 3.48 0 0.94-0.229 1.747-0.691 2.413-0.459 0.663-1.12 1.181-1.973 1.541v0.061c1.139 0.24 2.020 0.78 2.6 1.62s0.877 1.901 0.877 3.183c0 0.717-0.139 1.4-0.4 2.037zM20.049 17.873c-0.547-0.5-1.315-0.744-2.307-0.744h-5.763v5.824h5.779c0.987 0 1.76-0.256 2.307-0.773 0.547-0.513 0.827-1.245 0.827-2.187-0.009-0.92-0.28-1.632-0.827-2.12zM19.249 14.109c0.528-0.448 0.787-1.089 0.787-1.925 0-0.939-0.233-1.605-0.707-1.987-0.469-0.38-1.147-0.577-2.037-0.577h-5.333v5.151h5.333c0.777 0 1.44-0.227 1.957-0.661z"></path>
        </symbol>
        <symbol id="icon-babel" viewBox="0 0 32 32">
            <path fill="#f9dc3e" style="fill: var(--color10, #f9dc3e)" d="M21.912 10.763l-0.007-0.068-0.112 0.009 0.007 0.069zM22.661 12.565l0.003 0.037 0.077-0.007c0.001-0.040 0.010-0.077 0.025-0.111l-0.001 0.002-0.007-0.068c-0.033 0.003-0.067 0.052-0.097 0.147zM19.737 14.835c-0.005-0.064-0.204-0.313-0.597-0.752-0.007-0.080 0.128-0.2 0.405-0.36l0.792-0.691c0.177-0.225 0.281-0.589 0.313-1.097l-0.009-0.116c-0.032-0.351-0.285-0.633-0.767-0.849-0.284-0.192-0.796-0.299-1.536-0.317-0.613 0.052-1.411 0.271-2.396 0.656-0.261 0.189-0.563 0.382-0.875 0.559l-0.049 0.025 0.005 0.059c0.036-0.006 0.067-0.020 0.094-0.040l-0.001 0c0.040-0.004 0.063 0.013 0.067 0.053l0.059-0.032 0.027-0.003 0.004 0.027c0.003 0.031-0.211 0.2-0.643 0.5l0.033 0.061-0.028 0.003-0.072-0.027c0.003 0.023-0.028 0.036-0.088 0.040l0.003 0.027 0.069 0.085c-0.036-0.001-0.071-0.009-0.102-0.023l0.002 0.001c-0.118 0.018-0.22 0.076-0.293 0.159l-0 0.001 0.040-0.175c0.145-0.624 0.244-1.176 0.296-1.655l-0.007-0.031c-0.111-0.075-0.206-0.164-0.285-0.265l-0.002-0.003c0.002-0.019 0.002-0.041 0.002-0.063s-0.001-0.044-0.003-0.066l0 0.003-0.007-0.027-0.028 0.008c-0.313 0.469-0.916 1.271-1.809 2.404-0.68 0.807-1.032 1.255-1.053 1.345-0.277 0.287-0.409 0.46-0.396 0.52-0.073 0.047-0.104 0.093-0.093 0.147-0.020 0.004-0.035-0.003-0.040-0.024-0.117 0.188-0.303 0.323-0.523 0.368l-0.005 0.001-0.247 0.057c-0.033 0.007-0.049 0.031-0.047 0.071l0.007 0.031 0.092-0.021 0.007 0.027-0.209 0.080-0.369 0.085-0.195 0.013c-0.028 0.027 0.155-0.004 0.083 0.013l-0.241 0.057c-0.147 0.033-0.227 0.021-0.241-0.039l-0.029 0.007c0.005 0.027 0.007 0.045 0.003 0.063l-0.013-0.060-0.195 0.045c-0.013-0.091-0.277-0.417-0.787-0.981-0.011-0.109 0.169-0.268 0.537-0.475l1.039-0.913c0.232-0.299 0.369-0.777 0.415-1.436l-0.013-0.155c-0.040-0.465-0.377-0.84-1.011-1.128-0.375-0.253-1.048-0.389-2.020-0.411-0.807 0.068-1.86 0.356-3.155 0.856-0.346 0.252-0.743 0.506-1.155 0.737l-0.061 0.031 0.007 0.080c0.045-0.008 0.086-0.024 0.121-0.047l-0.001 0.001c0.053-0.005 0.081 0.019 0.087 0.067l0.080-0.045 0.040-0.003 0.003 0.039c0.003 0.037-0.28 0.257-0.851 0.661l0.045 0.071-0.040 0.003-0.088-0.031c0.003 0.024-0.039 0.040-0.12 0.047l0.004 0.043 0.095 0.105c-0.046-0.001-0.090-0.010-0.13-0.028l0.002 0.001c-0.185 0.017-0.365 0.149-0.543 0.4l0.045 0.072c0.153-0.143 0.244-0.213 0.269-0.216l0.009 0.116c-0.045 0.010-0.085 0.027-0.122 0.049l0.002-0.001 0.097 0.147c0.181-0.196 0.384-0.368 0.606-0.512l0.012-0.008c0.111 0.029 0.171 0.065 0.173 0.103l0.085-0.007c0.611-0.453 1.216-0.78 1.816-0.981l0.007 0.080c-0.112 0.167-0.187 0.252-0.227 0.256 0.004 0.057 0.023 0.107 0.059 0.149 0.009 0.103-0.264 0.789-0.816 2.061-1.253 2.955-2.307 5.14-3.164 6.553 0.003 0.029 0.020 0.067 0.051 0.115 0.211-0.051 0.344-0.103 0.4-0.152l0.045-0.005 0.007 0.080 0.079-0.007 0.080-0.044c0.003 0.023 0.029 0.035 0.084 0.031l0.007 0.080c0.007 0.079-0.039 0.197-0.133 0.36-0.085 0.097-0.177 0.301-0.275 0.613l0.003 0.037 0.079-0.008c0.341-0.381 0.6-0.756 0.777-1.12 0.996-0.293 1.755-0.58 2.28-0.861 0.529-0.045 0.933-0.185 1.208-0.416l-0.005-0.043-0.2 0.060-0.044 0.005-0.005-0.044c0.388-0.059 0.656-0.144 0.805-0.263 0.757-0.583 1.328-0.996 1.715-1.24 0.795-0.584 1.312-1.152 1.547-1.705l0.133-0.031c0.111-0.004 0.173-0.007 0.189-0.012-0.005-0.021 0.005-0.033 0.027-0.037 0.177-0.019 0.092 0.012 0.205-0.013l0.299-0.069c-0.019 0.004-0.027 0.013-0.021 0.032l0.045-0.027c-0.009 0-0.017-0.004-0.024-0.005l0.049-0.013-0.023 0.015c0.011 0.001 0.024 0.002 0.036 0.002 0.025 0 0.050-0.003 0.074-0.009l-0.002 0 0.021 0.088-1.359 2.16-0.301 0.377-0.147 0.493 0.028-0.008 0.147-0.061-0.047 0.192 0.013 0.057 0.041 0.049c-0.019 0.005-0.027 0.017-0.021 0.039l0.007 0.031 0.061-0.013c0.091-0.080 0.128-0.151 0.115-0.215 0.040 0.010 0.087 0.016 0.135 0.016 0.021 0 0.041-0.001 0.061-0.003l-0.002 0 0.007 0.032c-0.059 0.013-0.089 0.061-0.093 0.143l0.005 0.031 0.033-0.008c0.493-0.537 1.703-2.38 2.673-3.629-0.032-0.136 0.473-0.323 1.517-0.565l0.033-0.007c0.037 0.164-0.043 0.56-0.243 1.188-0.128 0.38-0.189 0.588-0.18 0.621-0.165 0.505-0.244 0.777-0.235 0.82l-0.369 1.213c-0.24 0.62-0.423 1.272-0.551 1.96 0.009-0.001 0.020-0.002 0.030-0.002 0.026 0 0.051 0.004 0.074 0.012l-0.002-0 0.052-0.045c0.005 0.021 0.019 0.028 0.040 0.024l-0.021-0.088 0.16-0.004c0.048-0.013 0.089-0.072 0.121-0.181-0.007-0.163 0.027-0.251 0.1-0.269 0.1-0.389 0.161-0.584 0.183-0.591 0.093-0.387 0.161-0.608 0.207-0.661 0.14-0.503 0.241-0.761 0.308-0.779l0.013 0.063-0.101 0.263c-0.177 0.789-0.357 1.413-0.54 1.871l0.052 0.227 0.033-0.005c0.44-0.949 1.076-2.827 1.904-5.635 0.019-0.244 0.155-0.452 0.35-0.572l0.003-0.002-0.048-0.051-0.007-0.027c0.095-0.020 0.161-0.059 0.2-0.111-0.005-0.021-0.088-0.052-0.249-0.095l0.413-1.769c0.045-0.048 0.097-0.089 0.154-0.121l0.003-0.002 0.007 0.089c-0.035 0.007-0.066 0.021-0.093 0.040l0.001-0 0.079 0.112c0.141-0.153 0.296-0.287 0.464-0.399 0.085 0.024 0.128 0.053 0.133 0.080l0.061-0.004c0.396-0.303 0.854-0.553 1.348-0.729l0.035-0.011 0.005 0.060c-0.083 0.125-0.14 0.189-0.171 0.192 0.004 0.042 0.017 0.081 0.038 0.114l-0.001-0.001c0.007 0.079-0.196 0.6-0.613 1.568-0.953 2.24-1.752 3.899-2.403 4.975 0.008 0.034 0.023 0.063 0.043 0.088l-0-0c0.16-0.039 0.261-0.079 0.301-0.116l0.028-0.003 0.005 0.059 0.067-0.004 0.060-0.031c0.003 0.016 0.023 0.023 0.064 0.021l0.005 0.064c0.005 0.056-0.029 0.147-0.103 0.269-0.068 0.073-0.14 0.228-0.216 0.463l0.003 0.031 0.063-0.004c0.227-0.247 0.424-0.527 0.579-0.832l0.010-0.021c0.757-0.224 1.333-0.44 1.732-0.653 0.405-0.035 0.711-0.14 0.92-0.315l-0.003-0.031-0.155 0.044-0.033 0.003-0.003-0.031c0.293-0.043 0.5-0.109 0.612-0.196 0.573-0.441 1.008-0.757 1.301-0.941 0.916-0.667 1.343-1.307 1.291-1.921zM19.58 14.875l0.021 0.24c-0.027 0.059-0.059 0.089-0.087 0.093l-0.036-0.409c0.067 0.024 0.1 0.048 0.101 0.076zM1.627 12.947l-0.040 0.001-0.007-0.073 0.164-0.013 0.003 0.037c-0.045 0.008-0.086 0.025-0.121 0.049l0.001-0.001zM0.827 20.94c-0.066-0.034-0.145-0.054-0.228-0.054-0.009 0-0.018 0-0.027 0.001l0.001-0-0.008-0.116c-0.005-0.044 0.021-0.075 0.077-0.087 0.053-0.005 0.083 0.033 0.088 0.108 0.137-0.168 0.213-0.253 0.227-0.256l0.089 0.036c-0.029 0.237-0.103 0.359-0.22 0.368zM9.367 12.007c-0.040 0.005-0.12-0.12-0.237-0.369l-0.007-0.073c0.076-0.008 0.155 0.116 0.237 0.369zM9.253 11.123l-0.033 0.079-1.16-0.484c0.773 0.027 1.172 0.16 1.193 0.405zM4.356 15.327l-0.164 0.013-0.007-0.072 0.164-0.015zM4.223 12.801l0.040-0.003 0.011 0.116c-0.039 0.003-0.088 0.060-0.149 0.169l-0.007-0.080c0.073-0.089 0.111-0.155 0.105-0.203zM3.88 13.612l0.013 0.155-0.040 0.003-0.013-0.155zM3.699 13.901l0.080-0.007c-0.008 0.128-0.044 0.197-0.107 0.201l-0.041 0.003c0.049-0.085 0.073-0.152 0.068-0.197zM3.565 14.305l0.044-0.005 0.003 0.037-0.073 0.124-0.079 0.007-0.003-0.037c0.079-0.008 0.115-0.048 0.108-0.125zM3.432 14.668l-0.024 0.195-0.040 0.001-0.017-0.192zM2.101 18.449c-0.053 0.267-0.109 0.4-0.168 0.405l-0.003-0.037c-0.015-0.131 0.043-0.253 0.171-0.368zM1.857 18.979l0.003 0.037c0.005 0.053-0.020 0.084-0.072 0.085l-0.003-0.037c-0.005-0.045 0.020-0.073 0.072-0.085zM1.785 20.076l0.124-0.012 0.005 0.043c-0.046 0.008-0.087 0.025-0.123 0.049l0.001-0.001-0.079 0.007c-0.005-0.040 0.021-0.071 0.071-0.085zM5.295 18.993c-0.692 0.341-1.1 0.573-1.221 0.693-0.749 0.261-1.12 0.423-1.113 0.487-0.667 0.264-1.107 0.457-1.316 0.579-0.079-0.001-0.153-0.022-0.218-0.057l0.002 0.001c-0.013-0.136 0.049-0.245 0.18-0.333 0.018-0.002 0.038-0.003 0.059-0.003 0.099 0 0.193 0.021 0.279 0.058l-0.005-0.002c0.184-0.085 0.399-0.158 0.624-0.208l0.022-0.004-0.007-0.080-0.247 0.021c0.031-0.043 0.268-0.155 0.715-0.333l0.123-0.013 0.003 0.039c-0.211 0.019-0.327 0.080-0.353 0.192 0.005 0.049 0.033 0.071 0.085 0.067 0.16-0.1 0.237-0.16 0.235-0.176 0.301-0.057 1.133-0.493 2.497-1.307l0.007 0.073c0.003 0.036-0.113 0.136-0.349 0.307zM3.204 19.68c0.201-0.016 0.38-0.104 0.512-0.237l0-0c0.057-0.004 0.088 0.017 0.089 0.067-0.096 0.009-0.284 0.091-0.556 0.247l-0.040 0.003zM6.577 17.089l-1.045 0.827c-0.777 0.511-1.195 0.767-1.253 0.771-1.239 0.68-2.009 1.035-2.308 1.060l-0.045 0.005c0.039-0.14 0.588-1.267 1.655-3.387 0.471-0.040 1.209-0.259 2.217-0.657l0.247-0.021c0.511-0.044 0.892 0.055 1.143 0.293l0.015 0.153c-0.189 0.545-0.399 0.863-0.624 0.956zM4.533 15.937l0.169-0.013 0.003 0.037-0.169 0.013zM6.899 15.537l0.123-0.013c0.113 0.055 0.173 0.103 0.177 0.145l0.003 0.037c-0.108 0.011-0.211-0.047-0.303-0.169zM7.232 13.632c-0.109 0.131-0.408 0.353-0.896 0.667-0.16 0.013-0.76 0.247-1.8 0.701-0.039-0.018-0.085-0.028-0.133-0.028-0.011 0-0.023 0.001-0.034 0.002l0.001-0-0.007-0.075c-0.013-0.149 0.053-0.337 0.2-0.564 0.081-0.427 0.169-0.672 0.267-0.731l0.867-1.947c-0.011-0.12 0.173-0.213 0.553-0.277l0.124-0.013 0.009 0.112c0.373-0.056 0.604-0.089 0.693-0.096 0.689-0.060 1.047 0.080 1.076 0.413l0.077-0.005-0.016-0.197 0.085-0.007c0.2 0.111 0.311 0.247 0.324 0.405 0.009 0.109-0.049 0.244-0.175 0.405-0.053 0.004-0.083-0.033-0.088-0.109l-0.085 0.007-0.019 0.237c-0.349 0.521-0.603 0.789-0.76 0.804-0.141 0.197-0.229 0.293-0.265 0.296zM7.764 14.996c-0.072-0.048-0.128-0.069-0.171-0.067l-0.009-0.116 0.077-0.007 0.173 0.101c0.007 0.055-0.016 0.083-0.071 0.088zM8.313 15.648c0.076 0.031 0.121 0.064 0.131 0.095l-0.037 0.009 0.003 0.003c-0.009 0.001-0.017 0.003-0.025 0.006l0.001-0-0.057 0.044zM8.367 15.975l-0.008-0.031 0.1-0.023 0.007 0.031zM8.605 16.243c0.101-0.016 0.152-0.023 0.341-0.067l0.007 0.032-0.36 0.083c0.004-0.013 0.008-0.029 0.012-0.046l0-0.002zM8.956 16.392c-0.152 0.015-0.119-0.004-0.36 0.051l-0.007-0.031 0.301-0.097 0.144-0.033 0.013 0.057c-0.063 0.013-0.016 0.013-0.092 0.053zM9.276 16.317c-0.035 0.009-0.064-0.008-0.080-0.048l0.093-0.021c0.040-0.009 0.065 0.007 0.075 0.048zM10.144 15.383l-0.007-0.031 0.149-0.036 0.013 0.057zM11.072 21.068c0.006-0.019 0.009-0.040 0.009-0.062 0-0.011-0.001-0.022-0.002-0.032l0 0.001 0.032-0.008c0.040-0.009 0.064 0.005 0.075 0.043l0.007 0.031zM11.721 15.627l-0.067-0.012c-0.075 0.033-0.165 0.064-0.258 0.088l-0.013 0.003-0.061 0.013c-0.036 0.009-0.064-0.004-0.079-0.043l0.435-0.099 0.143-0.067 0.047 0.053c-0.056 0.009-0.106 0.031-0.147 0.063l0.001-0.001zM12.055 15.52l-0.005-0.031c0.032-0.011 0.059-0.029 0.080-0.053l0-0 0.308-0.071 0.007 0.031c-0.163 0.040-0.293 0.080-0.389 0.124zM12.103 14.896c-0.033 0.013-0.062 0.031-0.085 0.053l0-0c-0.005-0.023-0.047-0.023-0.128-0.003-0.013-0.060 0.213-0.143 0.685-0.252l0.067-0.013 0.013 0.056c-0.331 0.097-0.516 0.152-0.552 0.159zM12.933 14c-0.033 0.377-0.167 0.591-0.4 0.645l-0.008-0.031-0.208 0.080-0.093 0.021c-0.018 0.005-0.038 0.008-0.059 0.008-0.024 0-0.048-0.004-0.070-0.011l0.002 0-0.019-0.083c-0.007-0.031 0.293-0.448 0.907-1.249l0.071 0.012c0.027 0.108-0.015 0.311-0.121 0.607zM14.4 12.743l-0.027 0.003-0.007-0.059 0.124-0.013 0.003 0.032c-0.035 0.009-0.066 0.022-0.095 0.038l0.002-0.001zM13.796 18.816c-0.051-0.027-0.111-0.043-0.175-0.043-0.005 0-0.010 0-0.015 0l0.001-0-0.007-0.091c-0.003-0.031 0.016-0.052 0.056-0.064 0.040-0.004 0.064 0.024 0.069 0.085 0.050-0.074 0.106-0.138 0.17-0.195l0.001-0.001 0.064 0.027c-0.024 0.18-0.079 0.275-0.164 0.281zM20.279 12.035c-0.031 0.001-0.089-0.093-0.183-0.285l-0.005-0.059c0.060-0.005 0.121 0.088 0.183 0.277zM20.193 11.356l-0.028 0.061-0.877-0.367c0.587 0.019 0.889 0.12 0.905 0.305zM16.473 14.551l-0.124 0.011-0.005-0.059 0.124-0.009zM16.371 12.631l0.033-0.001 0.007 0.091c-0.031 0.001-0.068 0.044-0.113 0.128l-0.005-0.060c0.053-0.068 0.080-0.12 0.079-0.157zM16.113 13.248l0.009 0.116-0.033 0.003-0.009-0.116zM15.973 13.469l0.061-0.005c-0.007 0.1-0.033 0.152-0.079 0.156l-0.033 0.003c0.028-0.043 0.047-0.096 0.051-0.152l0-0.001zM15.873 13.772l0.028-0.003 0.003 0.032-0.053 0.093-0.063 0.005-0.003-0.031c0.064-0.004 0.093-0.037 0.088-0.097zM15.773 14.048l-0.021 0.151-0.028 0.003-0.013-0.149zM14.76 16.924c-0.040 0.2-0.081 0.301-0.127 0.307l-0.003-0.027c-0.007-0.1 0.036-0.195 0.129-0.28zM14.573 17.324l0.003 0.027c0.005 0.043-0.013 0.067-0.056 0.068l-0.003-0.031c-0.003-0.031 0.016-0.052 0.056-0.064zM14.521 18.159l0.095-0.007 0.003 0.031c-0.035 0.007-0.067 0.019-0.095 0.037l0.001-0.001-0.060 0.004c-0.003-0.032 0.016-0.053 0.056-0.064zM17.184 17.336c-0.52 0.259-0.832 0.435-0.929 0.524-0.569 0.2-0.851 0.323-0.847 0.373-0.504 0.2-0.836 0.347-0.993 0.437-0.060-0.002-0.117-0.018-0.166-0.045l0.002 0.001c-0.009-0.103 0.039-0.185 0.139-0.247 0.015-0.002 0.033-0.002 0.051-0.002 0.073 0 0.143 0.015 0.206 0.041l-0.004-0.001c0.095-0.047 0.259-0.099 0.491-0.159l-0.005-0.059-0.195 0.013c0.024-0.033 0.207-0.119 0.547-0.256l0.093-0.007 0.003 0.027c-0.16 0.013-0.251 0.061-0.269 0.147 0.003 0.037 0.027 0.056 0.067 0.052 0.117-0.079 0.175-0.124 0.175-0.137 0.227-0.040 0.859-0.373 1.895-0.993l0.005 0.059c0.003 0.027-0.085 0.101-0.264 0.232zM15.596 17.857c0.154-0.012 0.291-0.078 0.393-0.177l-0 0c0.040-0.004 0.064 0.013 0.067 0.053-0.071 0.007-0.211 0.065-0.423 0.179l-0.033 0.003zM18.161 15.888l-0.789 0.635c-0.591 0.387-0.911 0.581-0.96 0.587-0.94 0.516-1.523 0.784-1.753 0.803l-0.033 0.003c0.029-0.107 0.449-0.963 1.26-2.571 0.353-0.031 0.913-0.199 1.68-0.503l0.193-0.016c0.387-0.033 0.676 0.043 0.865 0.225l0.009 0.116c-0.145 0.408-0.301 0.648-0.472 0.721zM16.611 15.015l0.124-0.012 0.003 0.031zM18.405 14.708l0.095-0.007c0.088 0.043 0.133 0.080 0.136 0.112l0.003 0.027c-0.083 0.007-0.161-0.036-0.233-0.132zM18.655 13.265c-0.083 0.099-0.308 0.269-0.676 0.507-0.123 0.013-0.579 0.187-1.365 0.529-0.031-0.011-0.067-0.018-0.105-0.018-0.007 0-0.015 0-0.022 0.001l0.001-0-0.005-0.059c-0.009-0.113 0.040-0.256 0.149-0.429 0.061-0.327 0.129-0.509 0.2-0.552l0.663-1.48c-0.007-0.088 0.133-0.16 0.417-0.213l0.095-0.007 0.007 0.089c0.28-0.045 0.455-0.071 0.527-0.079 0.521-0.044 0.795 0.060 0.816 0.316l0.061-0.005-0.013-0.141 0.063-0.005c0.152 0.083 0.232 0.183 0.241 0.301 0.007 0.085-0.035 0.189-0.125 0.311-0.040 0.005-0.064-0.024-0.068-0.085l-0.063 0.004-0.019 0.179c-0.263 0.4-0.455 0.607-0.576 0.616-0.107 0.145-0.173 0.219-0.203 0.221zM18.932 14.252l-0.007-0.091 0.061-0.005 0.133 0.080c0.003 0.040-0.017 0.060-0.057 0.065-0.056-0.036-0.099-0.053-0.131-0.049zM7.895 20.012l-0.063 0.013-0.052 0.045c0.009 0.037 0.033 0.052 0.073 0.043s0.057-0.033 0.041-0.101zM7.659 19.544l0.007 0.031c0.040-0.009 0.057-0.033 0.048-0.071l-0.007-0.031c-0.037 0.009-0.053 0.033-0.048 0.071zM9.328 15.572l0.072-0.016-0.013-0.063-0.072 0.017zM30.845 17.379c-0.72 0.161-0.811 0.133-0.963 0.145l0.005 0.059 0.067-0.004 0.035-0.003-0.009-0.008 0.080-0.031c0.712-0.077 0.796-0.049 0.785-0.159zM26.964 17.893l0.005 0.060h0.009zM26.517 16.331l-0.064-0.021c-0.033 0.071-0.059 0.154-0.075 0.24l-0.001 0.007 0.003 0.027c0.051-0.003 0.096-0.088 0.137-0.252zM30.992 17.367l0.005 0.060 0.104 0.019-0.005-0.059zM26.085 17.967l-0.16-0.019-0.029 0.061 0.003 0.031 0.96-0.080-0.004-0.059zM25.649 15.864l-0.003-0.031-0.032 0.003-0.060 0.037 0.033 0.057c0.045-0.005 0.067-0.027 0.061-0.067zM31.448 16.931l0.045-0.004c0.027-0.003 0.037-0.024 0.035-0.063l-0.027-0.056c-0.002 0-0.003-0-0.005-0-0.135 0-0.261 0.035-0.371 0.095l0.004-0.002-0.003-0.029-0.196 0.019c-0.005-0.060-0.021-0.091-0.048-0.088l-0.101 0.009c-0.12 0.009-0.176 0.005-0.235 0.051-0.003-0.023-0.009-0.032-0.021-0.032l-0.115 0.009-0.067 0.039c-0.003-0.021-0.009-0.031-0.021-0.031l-0.040 0.035-0.003-0.031-0.159-0.012-0.037 0.003 0.005 0.060 0.080 0.021 0.076-0.005c0.027 0.017 0.053 0.021 0.088 0.019l0.067-0.033 0.003 0.027c-0.373 0.093-0.371 0.076-0.627 0.119-0.028-0.019-0.049-0.028-0.064-0.027l-0.005 0.005c-0.028-0.003-0.045-0.021-0.048-0.053l0.133-0.016c0.009 0 0.016 0.011 0.091 0.024 0.107-0.052 0.111-0.073 0.168-0.077l-0.005-0.060c-0.365 0.071-0.219 0.024-0.676 0.064l-0.021 0.003-0.005-0.060c0.588-0.071 0.392-0.031 0.593-0.087 0.003 0.021 0.009 0.031 0.021 0.031 0.021-0.021 0.048-0.036 0.079-0.040l0.001-0 0.040-0.003c0.207-0.017 0.276 0.023 0.684-0.091l0.003 0.027 0.067-0.033 0.061-0.005c-0.005-0.059 0.085-0.068 0.116-0.071l-0.005-0.064c-0.716 0.144-0.904 0.104-1.103 0.16l-0.003-0.025c-0.187 0.033-0.195 0.019-0.243 0.021-0.024 0.007-0.043 0.021-0.059 0.038l-0 0c-0.003-0.021-0.009-0.031-0.024-0.031l-0.012 0.001-0.607 0.1c-0.003-0.016-0.009-0.027-0.024-0.024-0.316 0.067-0.231 0.079-0.653 0.116-0.029 0.006-0.055 0.018-0.078 0.034l0.001-0c-0.003-0.016-0.012-0.027-0.033-0.024l-0.259 0.021-0.173 0.044c-0.001-0.017-0.011-0.027-0.032-0.024-0.097 0.027-0.183 0.043-0.252 0.047h-0.005c-0.043 0.005 0.021-0.012-0.012-0.027l-0.052 0.032c-0.076 0.007-0.036-0.005-0.296-0.003-0.457 0.057-0.408 0.064-0.457 0.067l-0.172-0.012c0.003 0.016-0.007 0.028-0.027 0.028-0.193-0.027-0.293-0.056-0.295-0.093 0.027-0.184 0.071-0.279 0.133-0.283l0.035-0.003-0.029 0.061 0.033-0.003c0.063-0.033 0.091-0.064 0.088-0.093l-0.005-0.063-0.061 0.004-0.005-0.059c-0.001-0.008-0.002-0.018-0.002-0.028 0-0.033 0.008-0.064 0.021-0.092l-0.001 0.001 0.14-0.225 0.005 0.060 0.067-0.005-0.005-0.060-0.039-0.053c0.051-0.043 0.088-0.067 0.12-0.069l-0.004-0.031-0.089 0.007-0.007-0.089c0.18-0.375 0.265-0.593 0.26-0.655l0.064 0.027c0.040-0.004 0.060-0.027 0.057-0.069l-0.061 0.004-0.003-0.027c-0.001-0.006-0.001-0.013-0.001-0.021 0-0.038 0.009-0.073 0.026-0.105l-0.001 0.001c0.097-0.103 0.141-0.204 0.133-0.311 0.017-0.003 0.027 0.007 0.029 0.027 0.084-0.047 0.147-0.172 0.195-0.38 0.147-0.267 0.356-0.797 0.629-1.592 0.52-1.404 0.5-1.553 0.573-1.885l-0.061 0.005c0.001 0.006 0.001 0.013 0.001 0.020 0 0.037-0.009 0.071-0.026 0.101l0.001-0.001c-0.029-0.014-0.064-0.022-0.1-0.023h-0l-0.003-0.027c-0.009-0.12 0.040-0.265 0.155-0.436l0.028-0.003 0.053 0.204 0.060-0.004c-0.003-0.015 0.015-0.096 0.048-0.245-0.003-0.031-0.027-0.049-0.073-0.052l-0.060 0.039c-0.002-0.036-0.002-0.077-0.002-0.119 0-0.075 0.003-0.15 0.008-0.224l-0.001 0.010-0.031 0.004c-0.052-0.053-0.077-0.096-0.080-0.131l-0.34 0.033c-0.007-0.040-0.020-0.075-0.038-0.107l0.001 0.002c-0.003-0.031 0.073-0.061 0.229-0.092l0.069 0.027 0.064-0.039c0.003 0.021 0.013 0.031 0.039 0.029l0.064-0.039c0.003 0.021 0.013 0.031 0.037 0.028l0.031-0.001-0.005-0.069c-0.047 0.005-0.173 0.005-0.373-0.003l-0.063 0.043-0.003-0.037c-1.591 0.131-2.495 0.204-2.711 0.225-0.028 0.003-0.14 0-0.336-0.005 0.003 0.027-0.021 0.040-0.069 0.045l-0.069-0.031-0.232 0.059c-0.053 0.005-0.147 0.003-0.275-0.012-0.036 0.029-0.081 0.047-0.13 0.051l-0.001 0c-0.028 0.003 0.339-0.019 0.68-0.043-0.047 0.031-0.104 0.051-0.165 0.052h-0c-0.009 0.001-0.019 0.002-0.029 0.002-0.038 0-0.075-0.010-0.106-0.027l0.001 0.001c-0.137 0.045-0.307 0.086-0.48 0.115l-0.023 0.003-0.069-0.027-1.109 0.171c-0.034-0.016-0.073-0.025-0.115-0.025-0.012 0-0.024 0.001-0.036 0.002l0.001-0c-0.060 0.004-0.16 0.027-0.297 0.064l-0.536 0.223 0.040 0.067c0.041-0.007 0.078-0.022 0.11-0.043l-0.001 0.001 0.191 0.016-0.024 0.179c-0.176 0.077-0.277 0.193-0.307 0.341-0.263 0.116-0.393 0.199-0.393 0.248l0.003 0.031 0.040-0.001 0.072-0.039 0.083 0.1 0.012 0.137c0.005 0.043-0.439 0.975-1.325 2.796-0.768 1.755-1.172 2.715-1.209 2.888-0.264 0.073-0.415 0.18-0.46 0.323 0.005 0.045 0.083 0.076 0.235 0.088l0.007 0.068-0.069 0.115 0.013 0.137c0.005 0.071 0.199 0.125 0.575 0.163-0.003-0.023 0.009-0.037 0.036-0.040 0.007 0.085-0.016 0.252-0.071 0.499l0.040-0.003c0.156-0.213 0.231-0.36 0.223-0.44l0.033-0.004c0.037-0.003 0.079 0.040 0.125 0.133-0.047 0.019-0.213 0.396-0.497 1.133l0.040 0.067 0.040-0.003c0.349-0.883 0.567-1.371 0.657-1.463 0.457-0.040 1.249-0.121 2.373-0.243l0.072-0.043c0.003 0.024 0.016 0.036 0.043 0.033l0.073-0.007 0.071-0.043c0.003 0.024 0.016 0.036 0.043 0.033l0.851-0.073c0.227-0.020 0.333-0.088 0.323-0.204-0.003-0.031 0.131-0.067 0.399-0.105 0 0 0 0 0 0 0.042 0 0.081 0.008 0.118 0.022l-0.002-0.001c-0.003-0.021 0.133-0.043 0.403-0.067 0.007-0.141 0.053-0.217 0.133-0.224l-0.007-0.069c-0.097 0.011-0.186 0.032-0.27 0.063l0.008-0.003c-0.121-0.001-0.237-0.016-0.349-0.042l0.011 0.002c-0.031 0.020-0.068 0.034-0.107 0.041l-0.002 0-0.592 0.020-0.072 0.037c-0.003-0.021-0.016-0.031-0.043-0.028l-0.033 0.001-0.075 0.039c-0.003-0.021-0.064-0.039-0.188-0.055l-0.076 0.045-0.147 0.012-0.003-0.039c0.764-0.083 1.14-0.187 1.131-0.311 0.051-0.004 0.076 0.020 0.080 0.069l0.224-0.057-0.007-0.068-1.828 0.049c0.003 0.024-0.009 0.037-0.036 0.040l-0.223-0.019c-0.054 0.003-0.103 0.021-0.143 0.050l0.001-0.001-0.083-0.031c-0.231 0.019-0.4 0.048-0.515 0.083-0.063-0.004-0.137-0.007-0.211-0.007-0.109 0-0.217 0.005-0.324 0.016l0.013-0.001-0.411 0.035-0.189-0.021c-0.009-0.12 0.225-0.716 0.708-1.783 0.14-0.36 0.268-0.587 0.392-0.671 0.042 0.001 0.082 0.011 0.118 0.029l-0.002-0.001 0.292-0.1 0.149 0.024c0.251-0.021 0.543-0.093 0.877-0.216 0.017-0.003 0.038-0.004 0.058-0.004 0.047 0 0.092 0.008 0.134 0.022l-0.003-0.001 0.223-0.053 0.664-0.056c0.283-0.024 0.588-0.085 0.92-0.187l-0.007-0.069c-0.123 0.012-0.187-0.009-0.192-0.060-0.007-0.092-0.097-0.129-0.271-0.116l-0.007-0.068 0.183-0.053 0.48-0.040-0.007-0.068c-0.015 0-0.033 0-0.051 0-0.087 0-0.173-0.003-0.258-0.008l0.012 0.001-0.007-0.075 0.185-0.016c0.049-0.005 0.071-0.028 0.067-0.076-0.249 0.007-0.375-0.005-0.377-0.037-1.736 0.085-2.605 0.101-2.611 0.047-0.042 0.009-0.078 0.026-0.11 0.049l0.001-0.001-0.045-0.072c0.46-0.976 0.731-1.469 0.809-1.477-0.006 0.068-0.027 0.131-0.061 0.184l0.001-0.002 0.003 0.031 0.073-0.007c0.183-0.436 0.337-0.661 0.465-0.671 0.545-0.048-0.076-0.083 1.091-0.267 0.048 0.023 0.080 0.032 0.104 0.029 0.457-0.093 1.096-0.189 1.913-0.289l-0.005-0.069-0.436 0.040-0.005-0.067c0.050-0.004 0.095-0.022 0.131-0.051l-0 0 0.003 0.037c0.038-0.009 0.072-0.025 0.101-0.047l-0.001 0c0.076-0.008 0.133 0 0.173 0.021 0.102-0.030 0.225-0.056 0.351-0.072l0.013-0.001 0.273-0.027c0.067-0.043 0.097-0.080 0.095-0.116l-0.003-0.031c-0.022 0.002-0.047 0.003-0.073 0.003-0.059 0-0.117-0.006-0.173-0.017l0.006 0.001c-0.003-0.040 0.017-0.065 0.063-0.077l0.507-0.047 0.233-0.060c0.003 0.027 0.013 0.036 0.032 0.036 0.038-0.009 0.072-0.026 0.101-0.048l-0.001 0 0.039 0.005c-0.031 0.064-0.067 0.156-0.103 0.277l-0.067 0.005c-0.004-0.045-0.017-0.086-0.038-0.123l0.001 0.001-0.033 0.003c-0.616 1.716-0.892 2.516-1.461 3.833-0.104 0.337-0.192 0.524-0.267 0.565 0.003 0.037 0.027 0.056 0.067 0.052 0.002 0.019 0.002 0.040 0.002 0.062 0 0.158-0.045 0.306-0.122 0.432l0.002-0.004c-0.263 0.759-0.439 1.173-0.528 1.249l0.059 0.359c0.003 0.037-0.016 0.059-0.057 0.064l-0.063 0.004c-0.009-0.099-0.045-0.147-0.109-0.14l-0.033 0.003c-0.080 0.125-0.141 0.271-0.183 0.44l0.063-0.005c0.083-0.055 0.12-0.12 0.113-0.193l0.124-0.011 0.071 0.027c-0.057 0.089-0.083 0.16-0.079 0.215l0.033 0.057-0.080 0.189 0.003 0.031c0.004-0 0.009-0 0.015-0 0.081 0 0.157 0.025 0.219 0.068l-0.001-0.001c0.071-0.010 0.134-0.037 0.188-0.077l-0.001 0.001c0.072-0.007 0.337-0.009 0.795-0.009l0.231-0.079c0.28-0.003 0.324 0.005 0.567-0.016l0.099-0.009 0.053-0.036 0.003 0.031c0.253-0.021 0.269-0.005 0.469 0.019l0.003 0.031-0.14 0.013 0.005 0.059c0.042-0.003 0.080-0.019 0.111-0.043l-0 0c0.036-0.003 0.057 0.016 0.060 0.059-0.071 0.007-0.136 0.022-0.198 0.044l0.006-0.002-0.061-0.021c-0.097 0.027-0.076 0.033-0.143 0.039l-0.097-0.020c0.003 0.017-0.007 0.029-0.024 0.029 0.003 0.037 0.024 0.056 0.060 0.053l0.099-0.008 0.52-0.045 0.196-0.043c0.003 0.016 0.009 0.027 0.027 0.024l0.095-0.036 0.179-0.013c0.137-0.013 0.133-0.023 0.433-0.069-0.003-0.020 0.005-0.027 0.019-0.029l0.003 0.027c0.487-0.083 0.517-0.088 0.596-0.115l0.007 0.015c0.12-0.028 0.052-0.021 0.085-0.045 0.003 0.021 0.009 0.031 0.021 0.031l0.085-0.007-0.005-0.064-0.173-0.003-0.003-0.004-0.019 0.004h-0.024v0.005c-0.116 0.024-0.12 0.007-0.195 0.013l-0.435 0.024-0.003-0.031 0.243-0.033 0.088-0.007 0.049-0.036 0.003 0.032c0.341-0.029 0.463 0.056 2.041-0.28 0.085-0.008 0.079-0.079 0.133-0.227-0.004 0-0.008 0.001-0.012 0.001-0.026 0-0.050-0.007-0.071-0.018l0.001 0c-0.131 0.049-0.2 0.027-0.451 0.067-0.021 0.001-0.039-0.017-0.045-0.056l-0.003-0.027 0.241 0.008c0.045-0.004 0.133-0.012 0.264-0.085 0 0.021-0.048 0.033-0.013 0.031zM19.772 17.117l-0.112 0.011c-0.005-0.045 0.055-0.216 0.177-0.507l0.075-0.008c0.003 0.068-0.043 0.237-0.14 0.504zM19.907 16.577l-0.003-0.031c-0.003-0.037 0.021-0.064 0.073-0.076l0.003 0.031c0.003 0.045-0.021 0.072-0.073 0.076zM21.389 17.724l0.003 0.029-0.187 0.017-0.001-0.031zM21.165 17.704c0.003 0.037-0.053 0.080-0.177 0.123l-0.227-0.016-0.075 0.007-0.007-0.068zM22.664 10.805l-0.111 0.011-0.003-0.039c-0.003-0.037 0.019-0.064 0.067-0.076l0.040-0.003 0.076 0.031c0.003 0.045-0.020 0.072-0.069 0.076zM24.36 10.473l0.036-0.001 0.005 0.068-0.103 0.009c-0.003-0.037 0.017-0.064 0.061-0.076zM23.933 10.623l-0.168-0.019-0.003-0.031c0.22-0.019 0.293-0.043 0.428-0.080 0.003 0.027 0.027 0.035 0.069 0.031l0.005 0.068-0.067 0.008c-0.009 0.001-0.019 0.002-0.029 0.002-0.038 0-0.075-0.010-0.106-0.027l0.001 0.001c-0.037 0.025-0.081 0.042-0.129 0.047l-0.001 0zM24.144 11.237l-0.003-0.031 0.273-0.027 0.003 0.032zM24.436 11l-0.003-0.037 0.133-0.013 0.001 0.040zM24.467 10.536l-0.036 0.001 0.031-0.073 0.304-0.028 0.003 0.037c-0.114 0.014-0.216 0.036-0.314 0.066l0.013-0.003zM24.621 11.189l-0.005-0.068 0.133-0.012c0.044-0.005 0.067 0.017 0.069 0.064zM25.424 10.095l-0.171 0.047-0.031 0.003c-0.080 0.008-0.184 0.005-0.307-0.007 0.22-0.013 0.431-0.031 0.508-0.043zM25.243 10.853l0.003 0.031-0.236 0.021-0.003-0.031zM25.627 11.036c-0.003-0.028-0.048-0.048-0.14-0.057l-0.235 0.067-0.181 0.007c-0.040-0.028-0.061-0.047-0.064-0.061l0.209 0.012 0.469-0.076 0.24 0.009 0.003 0.039c-0.111 0.010-0.213 0.032-0.311 0.064l0.009-0.003zM28.043 10.412l0.053 0.003c0.079-0.078 0.173-0.142 0.277-0.187l0.006-0.002c-0.085 0.373-0.217 0.652-0.4 0.832l-0.133-0.080c0.069-0.154 0.136-0.341 0.19-0.535l0.007-0.030zM27.635 11.112l0.033-0.003c-0.045 0.085-0.085 0.131-0.119 0.133l-0.007-0.091c0.021 0 0.053-0.013 0.092-0.040zM27.372 11.74c0.064-0.256 0.125-0.4 0.183-0.439l0.003 0.031c-0.033 0.237-0.085 0.363-0.155 0.373l0.012 0.148c-0.057 0.081-0.083 0.143-0.080 0.191l-0.033 0.003-0.020-0.207c0.039-0.005 0.069-0.039 0.091-0.1zM27.269 12.081c-0.012 0.092-0.036 0.175-0.072 0.252l0.002-0.005-0.032 0.003-0.007-0.091c0.044-0.104 0.083-0.156 0.108-0.159zM25.356 17.635l-0.003-0.027 0.061-0.004 0.007 0.091c-0.033 0.003-0.057-0.017-0.065-0.060zM28.089 17.707c-0.003-0.021-0.012-0.031-0.032-0.029l-0.155 0.015-0.003-0.031h0.013l0.365-0.031 0.003 0.031c-0.107 0.004-0.171 0.021-0.192 0.045zM27.907 17.631c0.015 0.007 0.007 0.013 0 0.019-0.007-0.003-0.016-0.009 0-0.019zM27.927 17.204l-0.204 0.016-0.003-0.031 0.184-0.016 0.161-0.040c0.003 0.019 0.013 0.025 0.033 0.023 0.192-0.033 0.173-0.043 0.267-0.049 0.031-0.003 0.049 0.016 0.052 0.053zM28.64 17.141c-0.113-0.011-0.12-0.021-0.201-0.013l-0.003-0.027 0.183-0.016 0.003 0.027c-0.019 0.001 0.049 0.007 0.019 0.029zM28.653 17.109l-0.001-0.027 0.099-0.009 0.003 0.027zM28.875 17.089l-0.003-0.027c0.027-0.007 0.051-0.020 0.071-0.038l-0 0c0.051-0.004 0.076 0.029 0.081 0.067zM29.157 17.055l-0.003-0.032 0.12-0.009 0.003 0.031zM29.325 17.040c-0.003-0.036 0.012-0.057 0.043-0.061l0.040 0.052c-0.003-0.017 0.005-0.027 0.019-0.029l0.031 0.057zM27.535 17.813l-0.005-0.060-0.019 0.003zM31.701 16.733c0.019-0.011 0.028-0.023-0.017-0.031-0.021 0.024 0.024 0.032-0.023 0.033l0.003 0.021 0.027-0.019-0.027 0.021v0.003l-0.051 0.064 0.1-0.036h0.012zM31.875 16.869l-0.019 0.003 0.005 0.059 0.14-0.012c-0.003-0.037-0.096-0.049-0.127-0.049zM31.659 16.765l0.003-0.003v-0.003z"></path>
        </symbol>
        <symbol id="icon-facebook" viewBox="0 0 32 32">
            <path d="M19 6h5v-6h-5c-3.86 0-7 3.14-7 7v3h-4v6h4v16h6v-16h5l1-6h-6v-3c0-0.542 0.458-1 1-1z"></path>
        </symbol>
        <symbol id="icon-instagram" viewBox="0 0 32 32">
            <path d="M16 2.881c4.275 0 4.781 0.019 6.462 0.094 1.563 0.069 2.406 0.331 2.969 0.55 0.744 0.288 1.281 0.638 1.837 1.194 0.563 0.563 0.906 1.094 1.2 1.838 0.219 0.563 0.481 1.412 0.55 2.969 0.075 1.688 0.094 2.194 0.094 6.463s-0.019 4.781-0.094 6.463c-0.069 1.563-0.331 2.406-0.55 2.969-0.288 0.744-0.637 1.281-1.194 1.837-0.563 0.563-1.094 0.906-1.837 1.2-0.563 0.219-1.413 0.481-2.969 0.55-1.688 0.075-2.194 0.094-6.463 0.094s-4.781-0.019-6.463-0.094c-1.563-0.069-2.406-0.331-2.969-0.55-0.744-0.288-1.281-0.637-1.838-1.194-0.563-0.563-0.906-1.094-1.2-1.837-0.219-0.563-0.481-1.413-0.55-2.969-0.075-1.688-0.094-2.194-0.094-6.463s0.019-4.781 0.094-6.463c0.069-1.563 0.331-2.406 0.55-2.969 0.288-0.744 0.638-1.281 1.194-1.838 0.563-0.563 1.094-0.906 1.838-1.2 0.563-0.219 1.412-0.481 2.969-0.55 1.681-0.075 2.188-0.094 6.463-0.094zM16 0c-4.344 0-4.887 0.019-6.594 0.094-1.7 0.075-2.869 0.35-3.881 0.744-1.056 0.412-1.95 0.956-2.837 1.85-0.894 0.888-1.438 1.781-1.85 2.831-0.394 1.019-0.669 2.181-0.744 3.881-0.075 1.713-0.094 2.256-0.094 6.6s0.019 4.887 0.094 6.594c0.075 1.7 0.35 2.869 0.744 3.881 0.413 1.056 0.956 1.95 1.85 2.837 0.887 0.887 1.781 1.438 2.831 1.844 1.019 0.394 2.181 0.669 3.881 0.744 1.706 0.075 2.25 0.094 6.594 0.094s4.888-0.019 6.594-0.094c1.7-0.075 2.869-0.35 3.881-0.744 1.050-0.406 1.944-0.956 2.831-1.844s1.438-1.781 1.844-2.831c0.394-1.019 0.669-2.181 0.744-3.881 0.075-1.706 0.094-2.25 0.094-6.594s-0.019-4.887-0.094-6.594c-0.075-1.7-0.35-2.869-0.744-3.881-0.394-1.063-0.938-1.956-1.831-2.844-0.887-0.887-1.781-1.438-2.831-1.844-1.019-0.394-2.181-0.669-3.881-0.744-1.712-0.081-2.256-0.1-6.6-0.1v0z"></path>
            <path d="M16 7.781c-4.537 0-8.219 3.681-8.219 8.219s3.681 8.219 8.219 8.219 8.219-3.681 8.219-8.219c0-4.537-3.681-8.219-8.219-8.219zM16 21.331c-2.944 0-5.331-2.387-5.331-5.331s2.387-5.331 5.331-5.331c2.944 0 5.331 2.387 5.331 5.331s-2.387 5.331-5.331 5.331z"></path>
            <path d="M26.462 7.456c0 1.060-0.859 1.919-1.919 1.919s-1.919-0.859-1.919-1.919c0-1.060 0.859-1.919 1.919-1.919s1.919 0.859 1.919 1.919z"></path>
        </symbol>
        <symbol id="icon-twitter" viewBox="0 0 32 32">
            <path d="M32 7.075c-1.175 0.525-2.444 0.875-3.769 1.031 1.356-0.813 2.394-2.1 2.887-3.631-1.269 0.75-2.675 1.3-4.169 1.594-1.2-1.275-2.906-2.069-4.794-2.069-3.625 0-6.563 2.938-6.563 6.563 0 0.512 0.056 1.012 0.169 1.494-5.456-0.275-10.294-2.888-13.531-6.862-0.563 0.969-0.887 2.1-0.887 3.3 0 2.275 1.156 4.287 2.919 5.463-1.075-0.031-2.087-0.331-2.975-0.819 0 0.025 0 0.056 0 0.081 0 3.181 2.263 5.838 5.269 6.437-0.55 0.15-1.131 0.231-1.731 0.231-0.425 0-0.831-0.044-1.237-0.119 0.838 2.606 3.263 4.506 6.131 4.563-2.25 1.762-5.075 2.813-8.156 2.813-0.531 0-1.050-0.031-1.569-0.094 2.913 1.869 6.362 2.95 10.069 2.95 12.075 0 18.681-10.006 18.681-18.681 0-0.287-0.006-0.569-0.019-0.85 1.281-0.919 2.394-2.075 3.275-3.394z"></path>
        </symbol>
        <symbol id="icon-youtube" viewBox="0 0 32 32">
            <path d="M31.681 9.6c0 0-0.313-2.206-1.275-3.175-1.219-1.275-2.581-1.281-3.206-1.356-4.475-0.325-11.194-0.325-11.194-0.325h-0.012c0 0-6.719 0-11.194 0.325-0.625 0.075-1.987 0.081-3.206 1.356-0.963 0.969-1.269 3.175-1.269 3.175s-0.319 2.588-0.319 5.181v2.425c0 2.587 0.319 5.181 0.319 5.181s0.313 2.206 1.269 3.175c1.219 1.275 2.819 1.231 3.531 1.369 2.563 0.244 10.881 0.319 10.881 0.319s6.725-0.012 11.2-0.331c0.625-0.075 1.988-0.081 3.206-1.356 0.962-0.969 1.275-3.175 1.275-3.175s0.319-2.587 0.319-5.181v-2.425c-0.006-2.588-0.325-5.181-0.325-5.181zM12.694 20.15v-8.994l8.644 4.513-8.644 4.481z"></path>
        </symbol>
        <symbol id="icon-github" viewBox="0 0 24 28">
            <path d="M12 2c6.625 0 12 5.375 12 12 0 5.297-3.437 9.797-8.203 11.391-0.609 0.109-0.828-0.266-0.828-0.578 0-0.391 0.016-1.687 0.016-3.297 0-1.125-0.375-1.844-0.812-2.219 2.672-0.297 5.484-1.313 5.484-5.922 0-1.313-0.469-2.375-1.234-3.219 0.125-0.313 0.531-1.531-0.125-3.187-1-0.313-3.297 1.234-3.297 1.234-0.953-0.266-1.984-0.406-3-0.406s-2.047 0.141-3 0.406c0 0-2.297-1.547-3.297-1.234-0.656 1.656-0.25 2.875-0.125 3.187-0.766 0.844-1.234 1.906-1.234 3.219 0 4.594 2.797 5.625 5.469 5.922-0.344 0.313-0.656 0.844-0.766 1.609-0.688 0.313-2.438 0.844-3.484-1-0.656-1.141-1.844-1.234-1.844-1.234-1.172-0.016-0.078 0.734-0.078 0.734 0.781 0.359 1.328 1.75 1.328 1.75 0.703 2.141 4.047 1.422 4.047 1.422 0 1 0.016 1.937 0.016 2.234 0 0.313-0.219 0.688-0.828 0.578-4.766-1.594-8.203-6.094-8.203-11.391 0-6.625 5.375-12 12-12zM4.547 19.234c0.031-0.063-0.016-0.141-0.109-0.187-0.094-0.031-0.172-0.016-0.203 0.031-0.031 0.063 0.016 0.141 0.109 0.187 0.078 0.047 0.172 0.031 0.203-0.031zM5.031 19.766c0.063-0.047 0.047-0.156-0.031-0.25-0.078-0.078-0.187-0.109-0.25-0.047-0.063 0.047-0.047 0.156 0.031 0.25 0.078 0.078 0.187 0.109 0.25 0.047zM5.5 20.469c0.078-0.063 0.078-0.187 0-0.297-0.063-0.109-0.187-0.156-0.266-0.094-0.078 0.047-0.078 0.172 0 0.281s0.203 0.156 0.266 0.109zM6.156 21.125c0.063-0.063 0.031-0.203-0.063-0.297-0.109-0.109-0.25-0.125-0.313-0.047-0.078 0.063-0.047 0.203 0.063 0.297 0.109 0.109 0.25 0.125 0.313 0.047zM7.047 21.516c0.031-0.094-0.063-0.203-0.203-0.25-0.125-0.031-0.266 0.016-0.297 0.109s0.063 0.203 0.203 0.234c0.125 0.047 0.266 0 0.297-0.094zM8.031 21.594c0-0.109-0.125-0.187-0.266-0.172-0.141 0-0.25 0.078-0.25 0.172 0 0.109 0.109 0.187 0.266 0.172 0.141 0 0.25-0.078 0.25-0.172zM8.937 21.438c-0.016-0.094-0.141-0.156-0.281-0.141-0.141 0.031-0.234 0.125-0.219 0.234 0.016 0.094 0.141 0.156 0.281 0.125s0.234-0.125 0.219-0.219z"></path>
        </symbol>
        <symbol id="icon-linkedin" viewBox="0 0 24 28">
            <path d="M5.453 9.766v15.484h-5.156v-15.484h5.156zM5.781 4.984c0.016 1.484-1.109 2.672-2.906 2.672v0h-0.031c-1.734 0-2.844-1.188-2.844-2.672 0-1.516 1.156-2.672 2.906-2.672 1.766 0 2.859 1.156 2.875 2.672zM24 16.375v8.875h-5.141v-8.281c0-2.078-0.75-3.5-2.609-3.5-1.422 0-2.266 0.953-2.641 1.875-0.125 0.344-0.172 0.797-0.172 1.266v8.641h-5.141c0.063-14.031 0-15.484 0-15.484h5.141v2.25h-0.031c0.672-1.062 1.891-2.609 4.672-2.609 3.391 0 5.922 2.219 5.922 6.969z"></path>
        </symbol>
        <symbol id="icon-codepen" viewBox="0 0 28 28">
            <path d="M3.375 18.266l9.422 6.281v-5.609l-5.219-3.484zM2.406 16.016l3.016-2.016-3.016-2.016v4.031zM15.203 24.547l9.422-6.281-4.203-2.812-5.219 3.484v5.609zM14 16.844l4.25-2.844-4.25-2.844-4.25 2.844zM7.578 12.547l5.219-3.484v-5.609l-9.422 6.281zM22.578 14l3.016 2.016v-4.031zM20.422 12.547l4.203-2.812-9.422-6.281v5.609zM28 9.734v8.531c0 0.391-0.203 0.781-0.531 1l-12.797 8.531c-0.203 0.125-0.438 0.203-0.672 0.203s-0.469-0.078-0.672-0.203l-12.797-8.531c-0.328-0.219-0.531-0.609-0.531-1v-8.531c0-0.391 0.203-0.781 0.531-1l12.797-8.531c0.203-0.125 0.438-0.203 0.672-0.203s0.469 0.078 0.672 0.203l12.797 8.531c0.328 0.219 0.531 0.609 0.531 1z"></path>
        </symbol>
        <symbol id="icon-git" viewBox="0 0 32 32">
            <path fill="#f05032" style="fill: var(--color1, #f05032)" d="M31.395 14.573l-13.972-13.971c-0.805-0.804-2.109-0.804-2.917 0l-2.895 2.9 3.68 3.68c0.86-0.287 1.839-0.093 2.519 0.588 0.688 0.687 0.877 1.677 0.584 2.533l3.544 3.547c0.86-0.297 1.849-0.104 2.533 0.58 0.961 0.96 0.961 2.512 0 3.472-0.959 0.959-2.508 0.959-3.467 0-0.719-0.721-0.899-1.783-0.539-2.661l-3.319-3.301v8.7c0.235 0.115 0.456 0.271 0.651 0.464 0.951 0.961 0.951 2.511 0 3.467-0.959 0.961-2.519 0.961-3.479 0-0.959-0.959-0.959-2.505 0-3.464 0.243-0.24 0.516-0.421 0.807-0.541v-8.785c-0.289-0.121-0.565-0.296-0.8-0.535-0.727-0.727-0.901-1.789-0.528-2.679l-3.616-3.633-9.581 9.575c-0.8 0.807-0.8 2.112 0 2.919l13.973 13.969c0.805 0.805 2.109 0.805 2.915 0l13.907-13.907c0.807-0.804 0.807-2.109 0-2.916z"></path>
        </symbol>
        <symbol id="envelope" viewBox="0 0 28 28">
            <path d="M28 11.094v12.406c0 1.375-1.125 2.5-2.5 2.5h-23c-1.375 0-2.5-1.125-2.5-2.5v-12.406c0.469 0.516 1 0.969 1.578 1.359 2.594 1.766 5.219 3.531 7.766 5.391 1.313 0.969 2.938 2.156 4.641 2.156h0.031c1.703 0 3.328-1.188 4.641-2.156 2.547-1.844 5.172-3.625 7.781-5.391 0.562-0.391 1.094-0.844 1.563-1.359zM28 6.5c0 1.75-1.297 3.328-2.672 4.281-2.438 1.687-4.891 3.375-7.313 5.078-1.016 0.703-2.734 2.141-4 2.141h-0.031c-1.266 0-2.984-1.437-4-2.141-2.422-1.703-4.875-3.391-7.297-5.078-1.109-0.75-2.688-2.516-2.688-3.938 0-1.531 0.828-2.844 2.5-2.844h23c1.359 0 2.5 1.125 2.5 2.5z"></path>
        </symbol>
    </defs>
</svg>
